<mxfile host="app.diagrams.net" agent="Mozilla/5.0 (Windows NT 10.0; Win64; x64) AppleWebKit/537.36 (KHTML, like Gecko) Chrome/128.0.0.0 Safari/537.36" version="24.7.13">
  <diagram name="Page-1" id="qhRKrDH2A16aS0t9aFyy">
    <mxGraphModel dx="683" dy="355" grid="1" gridSize="10" guides="1" tooltips="1" connect="1" arrows="1" fold="1" page="1" pageScale="1" pageWidth="850" pageHeight="1100" math="0" shadow="0">
      <root>
        <mxCell id="0" />
        <mxCell id="1" parent="0" />
        <mxCell id="qzLtfGXVSb7sprTqAV0Y-3" style="edgeStyle=orthogonalEdgeStyle;rounded=0;orthogonalLoop=1;jettySize=auto;html=1;entryX=0.5;entryY=0;entryDx=0;entryDy=0;" edge="1" parent="1" source="qzLtfGXVSb7sprTqAV0Y-1" target="qzLtfGXVSb7sprTqAV0Y-2">
          <mxGeometry relative="1" as="geometry" />
        </mxCell>
        <mxCell id="qzLtfGXVSb7sprTqAV0Y-1" value="&lt;font style=&quot;font-size: 14px;&quot;&gt;idle&lt;/font&gt;" style="ellipse;whiteSpace=wrap;html=1;" vertex="1" parent="1">
          <mxGeometry x="280" y="130" width="80" height="40" as="geometry" />
        </mxCell>
        <mxCell id="qzLtfGXVSb7sprTqAV0Y-2" value="&lt;span style=&quot;font-size: 14px;&quot;&gt;prepare&lt;/span&gt;" style="ellipse;whiteSpace=wrap;html=1;" vertex="1" parent="1">
          <mxGeometry x="280" y="190" width="80" height="40" as="geometry" />
        </mxCell>
        <mxCell id="qzLtfGXVSb7sprTqAV0Y-12" style="edgeStyle=orthogonalEdgeStyle;rounded=0;orthogonalLoop=1;jettySize=auto;html=1;entryX=0.5;entryY=0;entryDx=0;entryDy=0;" edge="1" parent="1" source="qzLtfGXVSb7sprTqAV0Y-4" target="qzLtfGXVSb7sprTqAV0Y-8">
          <mxGeometry relative="1" as="geometry" />
        </mxCell>
        <mxCell id="qzLtfGXVSb7sprTqAV0Y-13" style="edgeStyle=orthogonalEdgeStyle;rounded=0;orthogonalLoop=1;jettySize=auto;html=1;entryX=0.5;entryY=0;entryDx=0;entryDy=0;exitX=0;exitY=1;exitDx=0;exitDy=0;" edge="1" parent="1" source="qzLtfGXVSb7sprTqAV0Y-4" target="qzLtfGXVSb7sprTqAV0Y-9">
          <mxGeometry relative="1" as="geometry">
            <Array as="points">
              <mxPoint x="292" y="300" />
              <mxPoint x="260" y="300" />
            </Array>
          </mxGeometry>
        </mxCell>
        <mxCell id="qzLtfGXVSb7sprTqAV0Y-15" style="edgeStyle=orthogonalEdgeStyle;rounded=0;orthogonalLoop=1;jettySize=auto;html=1;entryX=0.5;entryY=0;entryDx=0;entryDy=0;" edge="1" parent="1" source="qzLtfGXVSb7sprTqAV0Y-4" target="qzLtfGXVSb7sprTqAV0Y-11">
          <mxGeometry relative="1" as="geometry" />
        </mxCell>
        <mxCell id="qzLtfGXVSb7sprTqAV0Y-4" value="&lt;span style=&quot;font-size: 14px;&quot;&gt;check&lt;/span&gt;" style="ellipse;whiteSpace=wrap;html=1;" vertex="1" parent="1">
          <mxGeometry x="280" y="250" width="80" height="40" as="geometry" />
        </mxCell>
        <mxCell id="qzLtfGXVSb7sprTqAV0Y-7" style="edgeStyle=orthogonalEdgeStyle;rounded=0;orthogonalLoop=1;jettySize=auto;html=1;entryX=0.5;entryY=0;entryDx=0;entryDy=0;exitX=0.5;exitY=1;exitDx=0;exitDy=0;" edge="1" parent="1" source="qzLtfGXVSb7sprTqAV0Y-2" target="qzLtfGXVSb7sprTqAV0Y-4">
          <mxGeometry relative="1" as="geometry">
            <mxPoint x="330" y="130" as="sourcePoint" />
            <mxPoint x="330" y="170" as="targetPoint" />
          </mxGeometry>
        </mxCell>
        <mxCell id="qzLtfGXVSb7sprTqAV0Y-22" style="edgeStyle=orthogonalEdgeStyle;rounded=0;orthogonalLoop=1;jettySize=auto;html=1;entryX=0;entryY=0.5;entryDx=0;entryDy=0;" edge="1" parent="1" source="qzLtfGXVSb7sprTqAV0Y-8" target="qzLtfGXVSb7sprTqAV0Y-21">
          <mxGeometry relative="1" as="geometry">
            <Array as="points">
              <mxPoint x="160" y="410" />
            </Array>
          </mxGeometry>
        </mxCell>
        <mxCell id="qzLtfGXVSb7sprTqAV0Y-8" value="&lt;span style=&quot;font-size: 14px;&quot;&gt;read_t0&lt;/span&gt;" style="ellipse;whiteSpace=wrap;html=1;" vertex="1" parent="1">
          <mxGeometry x="120" y="320" width="80" height="40" as="geometry" />
        </mxCell>
        <mxCell id="qzLtfGXVSb7sprTqAV0Y-9" value="&lt;span style=&quot;font-size: 14px;&quot;&gt;read_t1&lt;/span&gt;" style="ellipse;whiteSpace=wrap;html=1;" vertex="1" parent="1">
          <mxGeometry x="220" y="320" width="80" height="40" as="geometry" />
        </mxCell>
        <mxCell id="qzLtfGXVSb7sprTqAV0Y-10" value="&lt;span style=&quot;font-size: 14px;&quot;&gt;read_t2&lt;/span&gt;" style="ellipse;whiteSpace=wrap;html=1;" vertex="1" parent="1">
          <mxGeometry x="340" y="320" width="80" height="40" as="geometry" />
        </mxCell>
        <mxCell id="qzLtfGXVSb7sprTqAV0Y-11" value="&lt;span style=&quot;font-size: 14px;&quot;&gt;read_t3&lt;/span&gt;" style="ellipse;whiteSpace=wrap;html=1;" vertex="1" parent="1">
          <mxGeometry x="440" y="320" width="80" height="40" as="geometry" />
        </mxCell>
        <mxCell id="qzLtfGXVSb7sprTqAV0Y-14" style="edgeStyle=orthogonalEdgeStyle;rounded=0;orthogonalLoop=1;jettySize=auto;html=1;entryX=0.5;entryY=0;entryDx=0;entryDy=0;exitX=1;exitY=1;exitDx=0;exitDy=0;" edge="1" parent="1" source="qzLtfGXVSb7sprTqAV0Y-4" target="qzLtfGXVSb7sprTqAV0Y-10">
          <mxGeometry relative="1" as="geometry">
            <mxPoint x="302" y="284" as="sourcePoint" />
            <mxPoint x="280" y="330" as="targetPoint" />
            <Array as="points">
              <mxPoint x="348" y="300" />
              <mxPoint x="380" y="300" />
            </Array>
          </mxGeometry>
        </mxCell>
        <mxCell id="qzLtfGXVSb7sprTqAV0Y-16" value="mode == 0" style="text;html=1;align=center;verticalAlign=middle;whiteSpace=wrap;rounded=0;fontSize=10;" vertex="1" parent="1">
          <mxGeometry x="220" y="253" width="60" height="20" as="geometry" />
        </mxCell>
        <mxCell id="qzLtfGXVSb7sprTqAV0Y-17" value="mode == 1" style="text;html=1;align=center;verticalAlign=middle;whiteSpace=wrap;rounded=0;fontSize=10;" vertex="1" parent="1">
          <mxGeometry x="234" y="284" width="60" height="20" as="geometry" />
        </mxCell>
        <mxCell id="qzLtfGXVSb7sprTqAV0Y-18" value="mode == 2" style="text;html=1;align=center;verticalAlign=middle;whiteSpace=wrap;rounded=0;fontSize=10;" vertex="1" parent="1">
          <mxGeometry x="346" y="283" width="60" height="20" as="geometry" />
        </mxCell>
        <mxCell id="qzLtfGXVSb7sprTqAV0Y-20" value="mode == 3" style="text;html=1;align=center;verticalAlign=middle;whiteSpace=wrap;rounded=0;fontSize=10;" vertex="1" parent="1">
          <mxGeometry x="360" y="254" width="60" height="20" as="geometry" />
        </mxCell>
        <mxCell id="qzLtfGXVSb7sprTqAV0Y-29" style="edgeStyle=orthogonalEdgeStyle;rounded=0;orthogonalLoop=1;jettySize=auto;html=1;exitX=1;exitY=1;exitDx=0;exitDy=0;entryX=0.5;entryY=0;entryDx=0;entryDy=0;" edge="1" parent="1" source="qzLtfGXVSb7sprTqAV0Y-21" target="qzLtfGXVSb7sprTqAV0Y-28">
          <mxGeometry relative="1" as="geometry">
            <Array as="points">
              <mxPoint x="348" y="440" />
              <mxPoint x="460" y="440" />
            </Array>
          </mxGeometry>
        </mxCell>
        <mxCell id="qzLtfGXVSb7sprTqAV0Y-32" style="edgeStyle=orthogonalEdgeStyle;rounded=0;orthogonalLoop=1;jettySize=auto;html=1;exitX=0;exitY=1;exitDx=0;exitDy=0;entryX=0.5;entryY=0;entryDx=0;entryDy=0;" edge="1" parent="1" source="qzLtfGXVSb7sprTqAV0Y-21" target="qzLtfGXVSb7sprTqAV0Y-27">
          <mxGeometry relative="1" as="geometry">
            <Array as="points">
              <mxPoint x="292" y="440" />
              <mxPoint x="200" y="440" />
            </Array>
          </mxGeometry>
        </mxCell>
        <mxCell id="qzLtfGXVSb7sprTqAV0Y-21" value="&lt;span style=&quot;font-size: 14px;&quot;&gt;pipe&lt;/span&gt;" style="ellipse;whiteSpace=wrap;html=1;" vertex="1" parent="1">
          <mxGeometry x="280" y="390" width="80" height="40" as="geometry" />
        </mxCell>
        <mxCell id="qzLtfGXVSb7sprTqAV0Y-23" style="edgeStyle=orthogonalEdgeStyle;rounded=0;orthogonalLoop=1;jettySize=auto;html=1;entryX=0;entryY=0;entryDx=0;entryDy=0;exitX=0.5;exitY=1;exitDx=0;exitDy=0;" edge="1" parent="1" source="qzLtfGXVSb7sprTqAV0Y-9" target="qzLtfGXVSb7sprTqAV0Y-21">
          <mxGeometry relative="1" as="geometry">
            <mxPoint x="170" y="370" as="sourcePoint" />
            <mxPoint x="290" y="450" as="targetPoint" />
            <Array as="points">
              <mxPoint x="260" y="380" />
              <mxPoint x="292" y="380" />
            </Array>
          </mxGeometry>
        </mxCell>
        <mxCell id="qzLtfGXVSb7sprTqAV0Y-25" style="edgeStyle=orthogonalEdgeStyle;rounded=0;orthogonalLoop=1;jettySize=auto;html=1;exitX=0.5;exitY=1;exitDx=0;exitDy=0;" edge="1" parent="1" source="qzLtfGXVSb7sprTqAV0Y-10">
          <mxGeometry relative="1" as="geometry">
            <mxPoint x="270" y="370" as="sourcePoint" />
            <mxPoint x="348" y="396" as="targetPoint" />
            <Array as="points">
              <mxPoint x="380" y="380" />
              <mxPoint x="348" y="380" />
            </Array>
          </mxGeometry>
        </mxCell>
        <mxCell id="qzLtfGXVSb7sprTqAV0Y-26" style="edgeStyle=orthogonalEdgeStyle;rounded=0;orthogonalLoop=1;jettySize=auto;html=1;entryX=1;entryY=0.5;entryDx=0;entryDy=0;exitX=0.5;exitY=1;exitDx=0;exitDy=0;" edge="1" parent="1" source="qzLtfGXVSb7sprTqAV0Y-11" target="qzLtfGXVSb7sprTqAV0Y-21">
          <mxGeometry relative="1" as="geometry">
            <mxPoint x="170" y="370" as="sourcePoint" />
            <mxPoint x="290" y="450" as="targetPoint" />
            <Array as="points">
              <mxPoint x="480" y="410" />
            </Array>
          </mxGeometry>
        </mxCell>
        <mxCell id="qzLtfGXVSb7sprTqAV0Y-34" style="edgeStyle=orthogonalEdgeStyle;rounded=0;orthogonalLoop=1;jettySize=auto;html=1;entryX=0;entryY=0.5;entryDx=0;entryDy=0;" edge="1" parent="1" source="qzLtfGXVSb7sprTqAV0Y-27" target="qzLtfGXVSb7sprTqAV0Y-33">
          <mxGeometry relative="1" as="geometry">
            <Array as="points">
              <mxPoint x="200" y="570" />
            </Array>
          </mxGeometry>
        </mxCell>
        <mxCell id="qzLtfGXVSb7sprTqAV0Y-27" value="&lt;span style=&quot;font-size: 14px;&quot;&gt;calc&lt;/span&gt;" style="ellipse;whiteSpace=wrap;html=1;" vertex="1" parent="1">
          <mxGeometry x="160" y="470" width="80" height="40" as="geometry" />
        </mxCell>
        <mxCell id="qzLtfGXVSb7sprTqAV0Y-31" style="edgeStyle=orthogonalEdgeStyle;rounded=0;orthogonalLoop=1;jettySize=auto;html=1;entryX=1;entryY=0.5;entryDx=0;entryDy=0;exitX=0;exitY=0.5;exitDx=0;exitDy=0;" edge="1" parent="1" source="qzLtfGXVSb7sprTqAV0Y-28" target="qzLtfGXVSb7sprTqAV0Y-30">
          <mxGeometry relative="1" as="geometry" />
        </mxCell>
        <mxCell id="qzLtfGXVSb7sprTqAV0Y-28" value="&lt;span style=&quot;font-size: 14px;&quot;&gt;extra_t3_1&lt;/span&gt;" style="ellipse;whiteSpace=wrap;html=1;" vertex="1" parent="1">
          <mxGeometry x="420" y="470" width="80" height="40" as="geometry" />
        </mxCell>
        <mxCell id="qzLtfGXVSb7sprTqAV0Y-38" style="edgeStyle=orthogonalEdgeStyle;rounded=0;orthogonalLoop=1;jettySize=auto;html=1;entryX=1;entryY=0.5;entryDx=0;entryDy=0;" edge="1" parent="1" source="qzLtfGXVSb7sprTqAV0Y-30" target="qzLtfGXVSb7sprTqAV0Y-27">
          <mxGeometry relative="1" as="geometry" />
        </mxCell>
        <mxCell id="qzLtfGXVSb7sprTqAV0Y-30" value="&lt;span style=&quot;font-size: 14px;&quot;&gt;extra_t3_2&lt;/span&gt;" style="ellipse;whiteSpace=wrap;html=1;" vertex="1" parent="1">
          <mxGeometry x="300" y="470" width="80" height="40" as="geometry" />
        </mxCell>
        <mxCell id="qzLtfGXVSb7sprTqAV0Y-35" style="edgeStyle=orthogonalEdgeStyle;rounded=0;orthogonalLoop=1;jettySize=auto;html=1;entryX=1;entryY=0.5;entryDx=0;entryDy=0;" edge="1" parent="1" source="qzLtfGXVSb7sprTqAV0Y-33" target="qzLtfGXVSb7sprTqAV0Y-2">
          <mxGeometry relative="1" as="geometry">
            <Array as="points">
              <mxPoint x="570" y="570" />
              <mxPoint x="570" y="210" />
            </Array>
          </mxGeometry>
        </mxCell>
        <mxCell id="qzLtfGXVSb7sprTqAV0Y-45" style="edgeStyle=orthogonalEdgeStyle;rounded=0;orthogonalLoop=1;jettySize=auto;html=1;exitX=0.5;exitY=1;exitDx=0;exitDy=0;" edge="1" parent="1" source="qzLtfGXVSb7sprTqAV0Y-33" target="qzLtfGXVSb7sprTqAV0Y-44">
          <mxGeometry relative="1" as="geometry" />
        </mxCell>
        <mxCell id="qzLtfGXVSb7sprTqAV0Y-33" value="&lt;span style=&quot;font-size: 14px;&quot;&gt;next_pixel&lt;/span&gt;" style="ellipse;whiteSpace=wrap;html=1;" vertex="1" parent="1">
          <mxGeometry x="300" y="550" width="80" height="40" as="geometry" />
        </mxCell>
        <mxCell id="qzLtfGXVSb7sprTqAV0Y-39" value="mode != 3" style="text;html=1;align=center;verticalAlign=middle;whiteSpace=wrap;rounded=0;fontSize=10;" vertex="1" parent="1">
          <mxGeometry x="236" y="424" width="60" height="20" as="geometry" />
        </mxCell>
        <mxCell id="qzLtfGXVSb7sprTqAV0Y-40" value="mode == 3" style="text;html=1;align=center;verticalAlign=middle;whiteSpace=wrap;rounded=0;fontSize=10;" vertex="1" parent="1">
          <mxGeometry x="346" y="423" width="60" height="20" as="geometry" />
        </mxCell>
        <mxCell id="qzLtfGXVSb7sprTqAV0Y-41" value="count == 3" style="text;html=1;align=center;verticalAlign=middle;whiteSpace=wrap;rounded=0;fontSize=10;" vertex="1" parent="1">
          <mxGeometry x="255" y="356" width="60" height="20" as="geometry" />
        </mxCell>
        <mxCell id="qzLtfGXVSb7sprTqAV0Y-42" value="count == 3" style="text;html=1;align=center;verticalAlign=middle;whiteSpace=wrap;rounded=0;fontSize=10;" vertex="1" parent="1">
          <mxGeometry x="375" y="356" width="60" height="20" as="geometry" />
        </mxCell>
        <mxCell id="qzLtfGXVSb7sprTqAV0Y-43" value="count == 15" style="text;html=1;align=center;verticalAlign=middle;whiteSpace=wrap;rounded=0;fontSize=10;" vertex="1" parent="1">
          <mxGeometry x="475" y="356" width="70" height="20" as="geometry" />
        </mxCell>
        <mxCell id="qzLtfGXVSb7sprTqAV0Y-46" style="edgeStyle=orthogonalEdgeStyle;rounded=0;orthogonalLoop=1;jettySize=auto;html=1;entryX=0;entryY=0.5;entryDx=0;entryDy=0;" edge="1" parent="1" source="qzLtfGXVSb7sprTqAV0Y-44" target="qzLtfGXVSb7sprTqAV0Y-1">
          <mxGeometry relative="1" as="geometry">
            <Array as="points">
              <mxPoint x="110" y="640" />
              <mxPoint x="110" y="150" />
            </Array>
          </mxGeometry>
        </mxCell>
        <mxCell id="qzLtfGXVSb7sprTqAV0Y-44" value="&lt;span style=&quot;font-size: 14px;&quot;&gt;finish&lt;/span&gt;" style="ellipse;whiteSpace=wrap;html=1;" vertex="1" parent="1">
          <mxGeometry x="300" y="620" width="80" height="40" as="geometry" />
        </mxCell>
        <mxCell id="qzLtfGXVSb7sprTqAV0Y-47" value="&lt;font style=&quot;font-size: 9px;&quot;&gt;((waddr_x == TW-1) &amp;amp;&amp;amp; (waddr_y == TH-1))&lt;/font&gt;" style="text;html=1;align=center;verticalAlign=middle;whiteSpace=wrap;rounded=0;fontSize=10;" vertex="1" parent="1">
          <mxGeometry x="340" y="590" width="180" height="20" as="geometry" />
        </mxCell>
        <mxCell id="qzLtfGXVSb7sprTqAV0Y-50" value="&lt;font style=&quot;font-size: 9px;&quot;&gt;!((waddr_x == TW-1) &amp;amp;&amp;amp; (waddr_y == TH-1))&lt;/font&gt;" style="text;html=1;align=center;verticalAlign=middle;whiteSpace=wrap;rounded=0;fontSize=10;" vertex="1" parent="1">
          <mxGeometry x="380" y="550" width="190" height="20" as="geometry" />
        </mxCell>
      </root>
    </mxGraphModel>
  </diagram>
</mxfile>
